<svg width="1035" height="739" viewBox="0 0 1035 739" fill="none" xmlns="http://www.w3.org/2000/svg">
<g id="Group 41">
<g id="Group 10">
<g id="Rectangle 3" filter="url(#filter0_d_0_360)">
<rect x="10" y="10" width="960" height="600" rx="20" fill="white"/>
</g>
<g id="Rectangle 3_2" filter="url(#filter1_d_0_360)">
<path d="M10 30C10 18.9543 18.9543 10 30 10H950C961.046 10 970 18.9543 970 30V74H10V30Z" fill="#00252E"/>
</g>
<rect id="Rectangle 5" x="82" y="30" width="200" height="24" rx="5" fill="#E1E8EE"/>
<g id="Group 5">
<rect id="Rectangle 6" x="874" y="32" width="32" height="4" rx="2" fill="#D8D8D8"/>
<rect id="Rectangle 6 Copy" x="874" y="40" width="32" height="4" rx="2" fill="#D8D8D8"/>
<rect id="Rectangle 6 Copy 2" x="874" y="48" width="32" height="4" rx="2" fill="#D8D8D8"/>
</g>
<g id="Group 9">
<circle id="Oval Copy" cx="130" cy="196" r="48" fill="url(#paint0_linear_0_360)"/>
<g id="Group 4">
<rect id="Rectangle 4" x="234" y="160" width="115" height="16" rx="3" fill="#E1E8EE"/>
<rect id="Rectangle 4 Copy" x="234" y="192" width="400" height="8" rx="3" fill="#E1E8EE"/>
<rect id="Rectangle 4 Copy 2" x="234" y="208" width="366.667" height="8" rx="3" fill="#E1E8EE"/>
<rect id="Rectangle 4 Copy 3" x="234" y="224" width="333.333" height="8" rx="3" fill="#E1E8EE"/>
</g>
<g id="Group 6">
<circle id="Oval" cx="694" cy="196" r="12" fill="#A7B9C8"/>
<circle id="Oval Copy 5" cx="758" cy="196" r="12" fill="#A7B9C8"/>
<circle id="Oval Copy 3" cx="726" cy="196" r="12" fill="#A7B9C8"/>
<circle id="Oval Copy 6" cx="790" cy="196" r="12" fill="#A7B9C8"/>
<circle id="Oval Copy 8" cx="822" cy="196" r="12" fill="#A7B9C8"/>
</g>
</g>
<g id="Group 8">
<circle id="Oval Copy 4" cx="127" cy="329" r="45" fill="url(#paint1_linear_0_360)"/>
<g id="Group 4 Copy">
<rect id="Rectangle 4_2" x="231" y="293" width="115" height="16" rx="3" fill="#E1E8EE"/>
<rect id="Rectangle 4 Copy_2" x="231" y="325" width="400" height="8" rx="3" fill="#E1E8EE"/>
<rect id="Rectangle 4 Copy 2_2" x="231" y="341" width="366.667" height="8" rx="3" fill="#E1E8EE"/>
<rect id="Rectangle 4 Copy 3_2" x="231" y="357" width="333.333" height="8" rx="3" fill="#E1E8EE"/>
</g>
<g id="Group 6 Copy">
<circle id="Oval_2" cx="691" cy="329" r="12" fill="#A7B9C8"/>
<circle id="Oval Copy 5_2" cx="755" cy="329" r="12" fill="#A7B9C8"/>
<circle id="Oval Copy 3_2" cx="723" cy="329" r="12" fill="#A7B9C8"/>
</g>
</g>
<g id="Group 7">
<circle id="Oval Copy 2" cx="127" cy="472" r="45" fill="url(#paint2_linear_0_360)"/>
<g id="Group 4 Copy 2">
<rect id="Rectangle 4_3" x="231" y="436" width="115" height="16" rx="3" fill="#E1E8EE"/>
<rect id="Rectangle 4 Copy_3" x="231" y="468" width="400" height="8" rx="3" fill="#E1E8EE"/>
<rect id="Rectangle 4 Copy 2_3" x="231" y="484" width="366.667" height="8" rx="3" fill="#E1E8EE"/>
<rect id="Rectangle 4 Copy 3_3" x="231" y="500" width="333.333" height="8" rx="3" fill="#E1E8EE"/>
</g>
<g id="Group 6 Copy 2">
<circle id="Oval_3" cx="691" cy="472" r="12" fill="#A7B9C8"/>
<circle id="Oval Copy 5_3" cx="755" cy="472" r="12" fill="#A7B9C8"/>
<circle id="Oval Copy 3_3" cx="723" cy="472" r="12" fill="#A7B9C8"/>
<circle id="Oval Copy 6_2" cx="787" cy="472" r="12" fill="#A7B9C8"/>
</g>
</g>
</g>
<g id="Group 40">
<g id="Group 3">
<g id="Rectangle 3_3" filter="url(#filter2_d_0_360)">
<path fill-rule="evenodd" clip-rule="evenodd" d="M706 235.067C706 225.641 713.641 218 723.067 218H1008.93C1018.36 218 1026 225.641 1026 235.067V712.933C1026 722.359 1018.36 730 1008.93 730H723.067C713.641 730 706 722.359 706 712.933V235.067Z" fill="white"/>
</g>
<g id="Rectangle 3_4" filter="url(#filter3_d_0_360)">
<path fill-rule="evenodd" clip-rule="evenodd" d="M706 235.067C706 225.641 713.641 218 723.067 218H1008.93C1018.36 218 1026 225.641 1026 235.067V272.613H706V235.067Z" fill="#00252E"/>
</g>
</g>
<g id="Group 12">
<rect id="Rectangle 5_2" x="738.133" y="236.773" width="104" height="20.48" rx="4.26667" fill="#E1E8EE"/>
<g id="Group 5_2">
<rect id="Rectangle 6_2" x="964.56" y="238.48" width="27.3067" height="3.41333" rx="1.70667" fill="#D8D8D8"/>
<rect id="Rectangle 6 Copy_2" x="964.56" y="245.307" width="27.3067" height="3.41333" rx="1.70667" fill="#D8D8D8"/>
<rect id="Rectangle 6 Copy 2_2" x="964.56" y="252.133" width="27.3067" height="3.41333" rx="1.70667" fill="#D8D8D8"/>
</g>
</g>
<g id="Group 11">
<circle id="Oval Copy_2" cx="753" cy="341" r="15" fill="url(#paint3_linear_0_360)"/>
<g id="Group 4_2">
<rect id="Rectangle 4_4" x="784" y="329" width="57.5" height="5.33333" rx="0.919612" fill="#E1E8EE"/>
<rect id="Rectangle 4 Copy_4" x="784" y="339.667" width="200" height="2.66667" rx="0.919612" fill="#E1E8EE"/>
<rect id="Rectangle 4 Copy 2_4" x="784" y="345" width="183.333" height="2.66667" rx="0.919612" fill="#E1E8EE"/>
<rect id="Rectangle 4 Copy 3_4" x="784" y="350.333" width="166.667" height="2.66667" rx="0.919612" fill="#E1E8EE"/>
</g>
</g>
<g id="Group 33">
<circle id="Oval Copy 7" cx="753" cy="479" r="15" fill="url(#paint4_linear_0_360)"/>
<g id="Group 4 Copy 5">
<rect id="Rectangle 4_5" x="784" y="467" width="57.5" height="5.33333" rx="0.919612" fill="#E1E8EE"/>
<rect id="Rectangle 4 Copy_5" x="784" y="477.667" width="200" height="2.66667" rx="0.919612" fill="#E1E8EE"/>
<rect id="Rectangle 4 Copy 2_5" x="784" y="483" width="183.333" height="2.66667" rx="0.919612" fill="#E1E8EE"/>
<rect id="Rectangle 4 Copy 3_5" x="784" y="488.333" width="166.667" height="2.66667" rx="0.919612" fill="#E1E8EE"/>
</g>
</g>
<g id="Group 13">
<g id="Group 4 Copy 3">
<rect id="Rectangle 4_6" x="784" y="375" width="57.5" height="5.33333" rx="0.919612" fill="#E1E8EE"/>
<rect id="Rectangle 4 Copy_6" x="784" y="385.667" width="200" height="2.66667" rx="0.919612" fill="#E1E8EE"/>
<rect id="Rectangle 4 Copy 2_6" x="784" y="391" width="183.333" height="2.66667" rx="0.919612" fill="#E1E8EE"/>
<rect id="Rectangle 4 Copy 3_6" x="784" y="396.333" width="166.667" height="2.66667" rx="0.919612" fill="#E1E8EE"/>
</g>
<circle id="Oval Copy 4_2" cx="753" cy="387" r="15" fill="url(#paint5_linear_0_360)"/>
</g>
<g id="Group 34">
<g id="Group 4 Copy 6">
<rect id="Rectangle 4_7" x="784" y="513" width="57.5" height="5.33333" rx="0.919612" fill="#E1E8EE"/>
<rect id="Rectangle 4 Copy_7" x="784" y="523.667" width="200" height="2.66667" rx="0.919612" fill="#E1E8EE"/>
<rect id="Rectangle 4 Copy 2_7" x="784" y="529" width="183.333" height="2.66667" rx="0.919612" fill="#E1E8EE"/>
<rect id="Rectangle 4 Copy 3_7" x="784" y="534.333" width="166.667" height="2.66667" rx="0.919612" fill="#E1E8EE"/>
</g>
<circle id="Oval Copy 9" cx="753" cy="525" r="15" fill="url(#paint6_linear_0_360)"/>
</g>
<g id="Group 14">
<g id="Group 4 Copy 4">
<rect id="Rectangle 4_8" x="784" y="421" width="57.5" height="5.33333" rx="0.919612" fill="#E1E8EE"/>
<rect id="Rectangle 4 Copy_8" x="784" y="431.667" width="200" height="2.66667" rx="0.919612" fill="#E1E8EE"/>
<rect id="Rectangle 4 Copy 2_8" x="784" y="437" width="183.333" height="2.66667" rx="0.919612" fill="#E1E8EE"/>
<rect id="Rectangle 4 Copy 3_8" x="784" y="442.333" width="166.667" height="2.66667" rx="0.919612" fill="#E1E8EE"/>
</g>
<circle id="Oval Copy 2_2" cx="753" cy="433" r="15" fill="url(#paint7_linear_0_360)"/>
</g>
<g id="Group 37">
<g id="Group 4 Copy 7">
<rect id="Rectangle 4_9" x="784" y="559" width="57.5" height="5.33333" rx="0.919612" fill="#E1E8EE"/>
<rect id="Rectangle 4 Copy_9" x="784" y="569.667" width="200" height="2.66667" rx="0.919612" fill="#E1E8EE"/>
<rect id="Rectangle 4 Copy 2_9" x="784" y="575" width="183.333" height="2.66667" rx="0.919612" fill="#E1E8EE"/>
<rect id="Rectangle 4 Copy 3_9" x="784" y="580.333" width="166.667" height="2.66667" rx="0.919612" fill="#E1E8EE"/>
</g>
<circle id="Oval Copy 10" cx="753" cy="571" r="15" fill="url(#paint8_linear_0_360)"/>
</g>
<g id="Group 38">
<circle id="Oval Copy 13" cx="753" cy="617" r="15" fill="url(#paint9_linear_0_360)"/>
<g id="Group 4 Copy 10">
<rect id="Rectangle 4_10" x="784" y="605" width="57.5" height="5.33333" rx="0.919612" fill="#E1E8EE"/>
<rect id="Rectangle 4 Copy_10" x="784" y="615.667" width="200" height="2.66667" rx="0.919612" fill="#E1E8EE"/>
<rect id="Rectangle 4 Copy 2_10" x="784" y="621" width="183.333" height="2.66667" rx="0.919612" fill="#E1E8EE"/>
<rect id="Rectangle 4 Copy 3_10" x="784" y="626.333" width="166.667" height="2.66667" rx="0.919612" fill="#E1E8EE"/>
</g>
</g>
<g id="Group 39">
<g id="Group 4 Copy 9">
<rect id="Rectangle 4_11" x="784" y="651" width="57.5" height="5.33333" rx="0.919612" fill="#E1E8EE"/>
<rect id="Rectangle 4 Copy_11" x="784" y="661.667" width="200" height="2.66667" rx="0.919612" fill="#E1E8EE"/>
<rect id="Rectangle 4 Copy 2_11" x="784" y="667" width="183.333" height="2.66667" rx="0.919612" fill="#E1E8EE"/>
<rect id="Rectangle 4 Copy 3_11" x="784" y="672.333" width="166.667" height="2.66667" rx="0.919612" fill="#E1E8EE"/>
</g>
<circle id="Oval Copy 12" cx="753" cy="663" r="15" fill="url(#paint10_linear_0_360)"/>
</g>
</g>
</g>
<defs>
<filter id="filter0_d_0_360" x="0" y="0" width="980" height="620" filterUnits="userSpaceOnUse" color-interpolation-filters="sRGB">
<feFlood flood-opacity="0" result="BackgroundImageFix"/>
<feColorMatrix in="SourceAlpha" type="matrix" values="0 0 0 0 0 0 0 0 0 0 0 0 0 0 0 0 0 0 127 0" result="hardAlpha"/>
<feOffset/>
<feGaussianBlur stdDeviation="5"/>
<feColorMatrix type="matrix" values="0 0 0 0 0 0 0 0 0 0.145098 0 0 0 0 0.180392 0 0 0 0.181839 0"/>
<feBlend mode="normal" in2="BackgroundImageFix" result="effect1_dropShadow_0_360"/>
<feBlend mode="normal" in="SourceGraphic" in2="effect1_dropShadow_0_360" result="shape"/>
</filter>
<filter id="filter1_d_0_360" x="0" y="0" width="980" height="84" filterUnits="userSpaceOnUse" color-interpolation-filters="sRGB">
<feFlood flood-opacity="0" result="BackgroundImageFix"/>
<feColorMatrix in="SourceAlpha" type="matrix" values="0 0 0 0 0 0 0 0 0 0 0 0 0 0 0 0 0 0 127 0" result="hardAlpha"/>
<feOffset/>
<feGaussianBlur stdDeviation="5"/>
<feColorMatrix type="matrix" values="0 0 0 0 0 0 0 0 0 0.145098 0 0 0 0 0.180392 0 0 0 0.181839 0"/>
<feBlend mode="normal" in2="BackgroundImageFix" result="effect1_dropShadow_0_360"/>
<feBlend mode="normal" in="SourceGraphic" in2="effect1_dropShadow_0_360" result="shape"/>
</filter>
<filter id="filter2_d_0_360" x="697" y="209" width="338" height="530" filterUnits="userSpaceOnUse" color-interpolation-filters="sRGB">
<feFlood flood-opacity="0" result="BackgroundImageFix"/>
<feColorMatrix in="SourceAlpha" type="matrix" values="0 0 0 0 0 0 0 0 0 0 0 0 0 0 0 0 0 0 127 0" result="hardAlpha"/>
<feOffset/>
<feGaussianBlur stdDeviation="4.5"/>
<feColorMatrix type="matrix" values="0 0 0 0 0 0 0 0 0 0.145098 0 0 0 0 0.180392 0 0 0 0.181839 0"/>
<feBlend mode="normal" in2="BackgroundImageFix" result="effect1_dropShadow_0_360"/>
<feBlend mode="normal" in="SourceGraphic" in2="effect1_dropShadow_0_360" result="shape"/>
</filter>
<filter id="filter3_d_0_360" x="697" y="209" width="338" height="72.6133" filterUnits="userSpaceOnUse" color-interpolation-filters="sRGB">
<feFlood flood-opacity="0" result="BackgroundImageFix"/>
<feColorMatrix in="SourceAlpha" type="matrix" values="0 0 0 0 0 0 0 0 0 0 0 0 0 0 0 0 0 0 127 0" result="hardAlpha"/>
<feOffset/>
<feGaussianBlur stdDeviation="4.5"/>
<feColorMatrix type="matrix" values="0 0 0 0 0 0 0 0 0 0.145098 0 0 0 0 0.180392 0 0 0 0.181839 0"/>
<feBlend mode="normal" in2="BackgroundImageFix" result="effect1_dropShadow_0_360"/>
<feBlend mode="normal" in="SourceGraphic" in2="effect1_dropShadow_0_360" result="shape"/>
</filter>
<linearGradient id="paint0_linear_0_360" x1="28.1704" y1="155.901" x2="86.9075" y2="291.998" gradientUnits="userSpaceOnUse">
<stop stop-color="#FAD961"/>
<stop offset="1" stop-color="#FF52C1"/>
</linearGradient>
<linearGradient id="paint1_linear_0_360" x1="82" y1="284" x2="82" y2="374" gradientUnits="userSpaceOnUse">
<stop stop-color="#00C7FA"/>
<stop offset="1" stop-color="#007DFA"/>
</linearGradient>
<linearGradient id="paint2_linear_0_360" x1="58.0159" y1="454.552" x2="113.12" y2="554.671" gradientUnits="userSpaceOnUse">
<stop stop-color="#FF52C1"/>
<stop offset="1" stop-color="#9952FF"/>
</linearGradient>
<linearGradient id="paint3_linear_0_360" x1="721.178" y1="328.469" x2="739.534" y2="370.999" gradientUnits="userSpaceOnUse">
<stop stop-color="#FAD961"/>
<stop offset="1" stop-color="#FF52C1"/>
</linearGradient>
<linearGradient id="paint4_linear_0_360" x1="721.178" y1="466.469" x2="739.534" y2="508.999" gradientUnits="userSpaceOnUse">
<stop stop-color="#FAD961"/>
<stop offset="1" stop-color="#FF52C1"/>
</linearGradient>
<linearGradient id="paint5_linear_0_360" x1="738" y1="372" x2="738" y2="402" gradientUnits="userSpaceOnUse">
<stop stop-color="#00C7FA"/>
<stop offset="1" stop-color="#007DFA"/>
</linearGradient>
<linearGradient id="paint6_linear_0_360" x1="738" y1="510" x2="738" y2="540" gradientUnits="userSpaceOnUse">
<stop stop-color="#00C7FA"/>
<stop offset="1" stop-color="#007DFA"/>
</linearGradient>
<linearGradient id="paint7_linear_0_360" x1="730.005" y1="427.184" x2="748.373" y2="460.557" gradientUnits="userSpaceOnUse">
<stop stop-color="#FF52C1"/>
<stop offset="1" stop-color="#9952FF"/>
</linearGradient>
<linearGradient id="paint8_linear_0_360" x1="730.005" y1="565.184" x2="748.373" y2="598.557" gradientUnits="userSpaceOnUse">
<stop stop-color="#FF52C1"/>
<stop offset="1" stop-color="#9952FF"/>
</linearGradient>
<linearGradient id="paint9_linear_0_360" x1="721.178" y1="604.469" x2="739.534" y2="646.999" gradientUnits="userSpaceOnUse">
<stop stop-color="#FAD961"/>
<stop offset="1" stop-color="#FF52C1"/>
</linearGradient>
<linearGradient id="paint10_linear_0_360" x1="738" y1="648" x2="738" y2="678" gradientUnits="userSpaceOnUse">
<stop stop-color="#00C7FA"/>
<stop offset="1" stop-color="#007DFA"/>
</linearGradient>
</defs>
</svg>
